<svg width="17" height="17" viewBox="0 0 17 17" xmlns="http://www.w3.org/2000/svg"><title>calendar</title><path d="M2.122 2.652V.53a.53.53 0 1 1 1.06 0v2.122a.53.53 0 1 1-1.06 0zm9.016.53a.53.53 0 0 0 .53-.53V.53a.53.53 0 1 0-1.06 0v2.122c0 .293.237.53.53.53zm5.834 9.547a4.243 4.243 0 1 1-8.486 0 4.243 4.243 0 0 1 8.486 0zm-1.06 0a3.186 3.186 0 0 0-3.183-3.182 3.186 3.186 0 0 0-3.182 3.182 3.186 3.186 0 0 0 3.182 3.183 3.186 3.186 0 0 0 3.183-3.183zM4.243 6.365H2.122v2.121h2.121V6.365zm-2.121 5.304h2.121V9.547H2.122v2.122zm3.182-3.183h2.122V6.365H5.304v2.121zm0 3.183h2.122V9.547H5.304v2.122zm-4.243.955v-7.32h11.668v2.121h1.061V3.288c0-.644-.514-1.166-1.149-1.166H12.2v.53a1.061 1.061 0 0 1-2.121 0v-.53H3.713v.53a1.061 1.061 0 0 1-2.121 0v-.53h-.443C.514 2.122 0 2.644 0 3.288v9.336a1.16 1.16 0 0 0 1.15 1.166h6.276v-1.06H1.149c-.048 0-.088-.05-.088-.106zm9.547-4.138V6.365H8.486v2.121h2.122zm3.713 4.243h-1.592v-1.591a.53.53 0 1 0-1.06 0v2.122c0 .293.237.53.53.53h2.122a.53.53 0 1 0 0-1.06z" fill="#6C7A89" opacity=".488"/></svg>