<svg width="14" height="20" viewBox="0 0 14 20" xmlns="http://www.w3.org/2000/svg"><title>ico-location</title><path d="M12.858 5.705c-.068-.253-.206-.523-.308-.76C11.326 2.023 8.654.976 6.496.976 3.606.976.425 2.902 0 6.87v.811c0 .034.012.338.028.49.239 1.891 1.74 3.902 2.862 5.793 1.206 2.026 2.458 4.02 3.698 6.012.765-1.3 1.527-2.617 2.275-3.884.203-.372.44-.743.644-1.098.136-.236.395-.473.514-.692 1.206-2.196 3.148-4.408 3.148-6.587V6.82c0-.236-.294-1.064-.31-1.115zm-6.31 4.07c-.849 0-1.778-.421-2.237-1.587-.068-.186-.063-.557-.063-.591v-.524c0-1.486 1.27-2.162 2.374-2.162 1.36 0 2.41 1.082 2.41 2.433 0 1.35-1.124 2.432-2.483 2.432z" fill="#6C7A89" opacity=".501"/></svg>