<svg width="72" height="61" viewBox="0 0 72 61" xmlns="http://www.w3.org/2000/svg"><title>ico-quote</title><path d="M22.884 27.818a18.873 18.873 0 0 0-5.235-.767c-2.645 0-4.853.607-6.564 1.35 1.65-6.065 5.614-16.53 13.51-17.71a1.88 1.88 0 0 0 1.53-1.354l1.726-6.198a1.889 1.889 0 0 0-.239-1.54 1.875 1.875 0 0 0-1.313-.832c-.582-.08-1.176-.12-1.765-.12-9.478 0-18.864 9.932-22.825 24.155-2.325 8.344-3.007 20.89 2.72 28.785 3.205 4.419 7.88 6.778 13.897 7.014l.074.001c7.423 0 14.006-5.02 16.008-12.206a16.652 16.652 0 0 0-1.523-12.69c-2.157-3.845-5.708-6.647-10.001-7.888zm46.469 7.888c-2.156-3.845-5.707-6.647-10-7.888a18.872 18.872 0 0 0-5.235-.767c-2.645 0-4.853.607-6.564 1.35 1.65-6.065 5.613-16.53 13.51-17.71a1.88 1.88 0 0 0 1.53-1.354l1.726-6.198a1.889 1.889 0 0 0-.238-1.54 1.872 1.872 0 0 0-1.313-.832c-.582-.08-1.176-.12-1.765-.12-9.478 0-18.864 9.932-22.826 24.155-2.324 8.344-3.006 20.89 2.722 28.787 3.204 4.417 7.88 6.778 13.896 7.013l.074.001c7.423 0 14.006-5.02 16.009-12.207a16.662 16.662 0 0 0-1.526-12.69z" fill="#ECF0F1"/></svg>