<svg width="13" height="12" viewBox="0 0 13 12" xmlns="http://www.w3.org/2000/svg"><title>rating</title><path d="M12.975 4.657c0-.186-.146-.301-.437-.347l-3.914-.55L6.869.336c-.098-.207-.226-.31-.382-.31-.155 0-.283.103-.382.309L4.351 3.76l-3.914.55C.146 4.355 0 4.47 0 4.656c0 .105.065.226.195.361l2.838 2.666-.67 3.765c-.01.07-.016.12-.016.15 0 .106.027.195.082.268.054.073.136.109.246.109a.68.68 0 0 0 .311-.09l3.501-1.778 3.502 1.778c.109.06.213.09.311.09a.278.278 0 0 0 .238-.11.434.434 0 0 0 .082-.267c0-.065-.003-.115-.008-.15l-.67-3.765 2.83-2.666c.135-.13.203-.25.203-.361z" fill="#FDB22B"/></svg>