<svg width="26" height="27" viewBox="0 0 26 27" xmlns="http://www.w3.org/2000/svg"><title>Shape</title><path d="M25.604 24.578l-6.295-6.68a10.993 10.993 0 0 0 2.505-7.003C21.814 4.887 17.024 0 11.135 0 5.247 0 .457 4.887.457 10.895c0 6.007 4.79 10.894 10.678 10.894 2.21 0 4.317-.68 6.118-1.971l6.343 6.73a1.371 1.371 0 0 0 1.969.04 1.443 1.443 0 0 0 .038-2.01zM11.135 2.842c4.353 0 7.893 3.612 7.893 8.053 0 4.44-3.54 8.052-7.893 8.052-4.352 0-7.892-3.612-7.892-8.052 0-4.44 3.54-8.053 7.892-8.053z" fill="#FFF"/></svg>