<svg width="30" height="30" viewBox="0 0 30 30" xmlns="http://www.w3.org/2000/svg"><title>ico-social-logic-gp</title><g fill="#DB4C3E" fill-rule="evenodd"><path d="M12.9 17.364c-.097-.064-.196-.134-.3-.204a3.396 3.396 0 0 0-.95-.145h-.04c-1.508 0-2.83.913-2.83 1.955 0 1.134 1.133 2.02 2.58 2.02 1.907 0 2.873-.659 2.873-1.955 0-.122-.014-.25-.045-.377-.129-.503-.59-.817-1.288-1.294zm-1.069-3.953h.002c.36 0 .664-.142.9-.412.37-.421.534-1.112.436-1.846C13 9.84 12.061 8.749 11.082 8.72l-.039-.001a1.16 1.16 0 0 0-.89.411c-.364.416-.518 1.075-.423 1.808.172 1.31 1.13 2.442 2.088 2.472h.013z"/><path d="M14.896 0C6.682 0 0 6.682 0 14.896 0 23.108 6.682 29.79 14.896 29.79c8.212 0 14.895-6.683 14.895-14.895C29.791 6.682 23.11 0 14.896 0zm-1.718 22.149a6.525 6.525 0 0 1-1.81.245 8.3 8.3 0 0 1-2.034-.243c-1.234-.312-2.146-.902-2.572-1.663a2.116 2.116 0 0 1-.277-1.042c0-.374.09-.753.266-1.129.676-1.44 2.459-2.41 4.434-2.41h.056a1.76 1.76 0 0 1-.176-1.352c-2.072-.046-3.621-1.563-3.621-3.563 0-1.412 1.128-2.788 2.742-3.343a4.475 4.475 0 0 1 1.46-.252h4.43a.347.347 0 1 1 .205.63l-.992.716a.354.354 0 0 1-.204.065h-.355c.458.549.726 1.332.726 2.211 0 .97-.49 1.888-1.384 2.587-.69.537-.717.685-.717.992.008.169.489.719 1.02 1.094 1.235.873 1.694 1.73 1.694 3.161 0 1.495-1.135 2.786-2.89 3.296zm10.003-7.597a.349.349 0 0 1-.348.348h-2.517v2.518a.348.348 0 0 1-.347.348h-.717a.349.349 0 0 1-.349-.348V14.9h-2.515a.347.347 0 0 1-.348-.348v-.716a.35.35 0 0 1 .348-.35h2.515v-2.515c0-.193.156-.348.35-.348h.716c.19 0 .347.155.347.348v2.516h2.516c.192 0 .348.156.348.348v.717h.001z"/></g></svg>