<svg width="19" height="15" viewBox="0 0 19 15" xmlns="http://www.w3.org/2000/svg"><title>sort-list</title><path d="M4.408 5.471H1.017a.98.98 0 0 0-.72.298.985.985 0 0 0-.297.723v2.04c0 .283.099.524.297.722a.98.98 0 0 0 .72.298h3.39a.98.98 0 0 0 .721-.298.985.985 0 0 0 .297-.722v-2.04a.985.985 0 0 0-.297-.723.98.98 0 0 0-.72-.298zm0-5.441H1.017a.98.98 0 0 0-.72.298A.985.985 0 0 0 0 1.05v2.04c0 .284.099.525.297.724a.98.98 0 0 0 .72.297h3.39a.98.98 0 0 0 .721-.297.985.985 0 0 0 .297-.723v-2.04a.986.986 0 0 0-.297-.723.98.98 0 0 0-.72-.298zm0 10.882H1.017a.98.98 0 0 0-.72.298.986.986 0 0 0-.297.722v2.041c0 .283.099.524.297.723a.98.98 0 0 0 .72.297h3.39a.98.98 0 0 0 .721-.297.985.985 0 0 0 .297-.723v-2.04a.985.985 0 0 0-.297-.723.98.98 0 0 0-.72-.298zm13.561-5.441H7.798a.98.98 0 0 0-.72.298.985.985 0 0 0-.297.723v2.04c0 .283.099.524.296.722a.98.98 0 0 0 .72.298H17.97c.283 0 .523-.1.72-.298a.984.984 0 0 0 .297-.722v-2.04a.984.984 0 0 0-.297-.723.979.979 0 0 0-.72-.298zm0 5.441H7.798c-.283 0-.523.1-.72.298a.985.985 0 0 0-.297.722v2.04a.99.99 0 0 0 .296.724.98.98 0 0 0 .72.297H17.97a.98.98 0 0 0 .72-.297.985.985 0 0 0 .297-.723v-2.04a.984.984 0 0 0-.297-.723.98.98 0 0 0-.72-.298zM18.69.328a.98.98 0 0 0-.721-.298H7.798a.98.98 0 0 0-.72.298.985.985 0 0 0-.297.723v2.04c0 .284.099.524.296.723a.98.98 0 0 0 .72.297H17.97a.98.98 0 0 0 .72-.297.985.985 0 0 0 .297-.723v-2.04a.985.985 0 0 0-.297-.723z" fill="#FFF"/></svg>