<svg width="80" height="80" viewBox="0 0 80 80" xmlns="http://www.w3.org/2000/svg"><title>ico-video-play</title><g fill="#FFF"><path d="M53.096 38.365L36.516 26.31a2 2 0 0 0-3.176 1.613v24.098a1.993 1.993 0 0 0 3.175 1.61L53.096 41.59c.523-.385.829-.98.829-1.613a1.985 1.985 0 0 0-.829-1.612z"/><path d="M39.927.005C17.872.005 0 17.878 0 39.932 0 61.98 17.872 79.846 39.927 79.846c22.05 0 39.924-17.87 39.924-39.914C79.854 17.878 61.976.005 39.927.005zm0 73.18C21.56 73.184 6.67 58.3 6.67 39.931c0-18.36 14.89-33.262 33.257-33.262 18.364 0 33.252 14.898 33.252 33.262.003 18.37-14.888 33.252-33.252 33.252z"/></g></svg>