<?xml version="1.0" encoding="UTF-8"?>
<svg width="17px" height="17px" viewBox="0 0 17 17" version="1.1" xmlns="http://www.w3.org/2000/svg" xmlns:xlink="http://www.w3.org/1999/xlink">
    <!-- Generator: Sketch 43 (38999) - http://www.bohemiancoding.com/sketch -->
    <title>calendar</title>
    <desc>Created with Sketch.</desc>
    <defs></defs>
    <g id="Page-1" stroke="none" stroke-width="1" fill="none" fill-rule="evenodd" opacity="0.488168025">
        <g id="Search-results-Map" transform="translate(-453.000000, -410.000000)" fill-rule="nonzero" fill="#6C7A89">
            <g id="filter" transform="translate(215.000000, 320.000000)">
                <g id="Group" transform="translate(0.000000, 48.000000)">
                    <path d="M240.121537,44.652 L240.121537,42.530393 C240.121537,42.2371955 240.358733,42 240.652,42 C240.945128,42 241.182323,42.2371955 241.182323,42.530393 L241.182323,44.652 C241.182323,44.9451276 240.945128,45.182323 240.652,45.182323 C240.358733,45.182358 240.121537,44.9451276 240.121537,44.652 Z M249.138253,45.182358 C249.431311,45.182358 249.668646,44.9451626 249.668646,44.652035 L249.668646,42.530393 C249.668646,42.2371955 249.431311,42 249.138253,42 C248.845056,42 248.607685,42.2371955 248.607685,42.530393 L248.607685,44.652 C248.607685,44.9451276 248.845056,45.182358 249.138253,45.182358 Z M254.972401,54.7292222 C254.972401,57.0727037 253.072599,58.9724712 250.729292,58.9724712 C248.38616,58.9724712 246.486218,57.0727037 246.486218,54.7292222 C246.486218,52.3860905 248.386126,50.4862181 250.729292,50.4862181 C253.072599,50.4862181 254.972401,52.3860556 254.972401,54.7292222 Z M253.911755,54.7292222 C253.911755,52.9746193 252.484245,51.5469342 250.729327,51.5469342 C248.974549,51.5469342 247.547039,52.9745844 247.547039,54.7292222 C247.547039,56.4841749 248.974549,57.9116502 250.729327,57.9116502 C252.484245,57.9116502 253.911755,56.4841749 253.911755,54.7292222 Z M242.243144,48.3646811 L240.121537,48.3646811 L240.121537,50.4862181 L242.243144,50.4862181 L242.243144,48.3646811 Z M240.121537,53.6685761 L242.243144,53.6685761 L242.243144,51.5469342 L240.121537,51.5469342 L240.121537,53.6685761 Z M243.30386,50.4862181 L245.425502,50.4862181 L245.425502,48.3646811 L243.30386,48.3646811 L243.30386,50.4862181 Z M243.30386,53.6685761 L245.425502,53.6685761 L245.425502,51.5469342 L243.30386,51.5469342 L243.30386,53.6685761 Z M239.060821,54.6237593 L239.060821,47.3038601 L250.729327,47.3038601 L250.729327,49.4254671 L251.790148,49.4254671 L251.790148,45.2880658 C251.790148,44.6437099 251.27623,44.121537 250.641319,44.121537 L250.198934,44.121537 L250.198934,44.652035 C250.198934,45.2362263 249.723354,45.712786 249.138288,45.712786 C248.553047,45.712786 248.077502,45.2362263 248.077502,44.652035 L248.077502,44.121537 L241.712681,44.121537 L241.712681,44.652035 C241.712681,45.2362263 241.237206,45.712786 240.652035,45.712786 C240.066724,45.712786 239.591214,45.2362263 239.591214,44.652035 L239.591214,44.121537 L239.149354,44.121537 C238.514407,44.121537 238,44.6437099 238,45.2880658 L238,54.6237942 C238,55.2660165 238.514407,55.7902181 239.149354,55.7902181 L245.425502,55.7902181 L245.425502,54.7292572 L239.149354,54.7292572 C239.101292,54.7292222 239.060821,54.6795864 239.060821,54.6237593 Z M248.607685,50.4862181 L248.607685,48.3646811 L246.486253,48.3646811 L246.486253,50.4862181 L248.607685,50.4862181 Z M252.320506,54.7292222 L250.729292,54.7292222 L250.729292,53.1380082 C250.729292,52.8449856 250.492097,52.6077901 250.198899,52.6077901 C249.905702,52.6077901 249.668646,52.8449856 249.668646,53.1380082 L249.668646,55.2597901 C249.668646,55.5528477 249.905702,55.7901831 250.198899,55.7901831 L252.320506,55.7901831 C252.613704,55.7901831 252.850899,55.5528477 252.850899,55.2597901 C252.850899,54.9665926 252.613704,54.7292222 252.320506,54.7292222 Z" id="calendar"></path>
                </g>
            </g>
        </g>
    </g>
</svg>