<?xml version="1.0" encoding="UTF-8"?>
<svg width="14px" height="14px" viewBox="0 0 14 14" version="1.1" xmlns="http://www.w3.org/2000/svg" xmlns:xlink="http://www.w3.org/1999/xlink">
    <!-- Generator: Sketch 43 (38999) - http://www.bohemiancoding.com/sketch -->
    <title>ico-filter</title>
    <desc>Created with Sketch.</desc>
    <defs></defs>
    <g id="Page-1" stroke="none" stroke-width="1" fill="none" fill-rule="evenodd">
        <g id="Search-results" transform="translate(-215.000000, -324.000000)" fill-rule="nonzero" fill="#59C8C2">
            <g id="filter" transform="translate(215.000000, 320.000000)">
                <path d="M13.9604386,4.38782668 C13.8475663,4.12938004 13.652225,4.00013931 13.3734746,4 L0.646518486,4 C0.368151148,4 0.172531312,4.12938004 0.0598331129,4.38782668 C-0.0527954338,4.65950736 -0.0064415081,4.89166007 0.199103848,5.0838321 L5.10116209,9.98575103 L5.10116209,14.8180868 C5.10116209,14.9906516 5.16416303,15.1396041 5.29006043,15.2657453 L7.83534718,17.8109624 C7.95476687,17.9368249 8.10385865,18 8.28290112,18 C8.36237494,18 8.4451921,17.9833182 8.53138741,17.9501983 C8.79000819,17.8374304 8.9193534,17.6419499 8.9193534,17.3635477 L8.9193534,9.98578586 L13.8212375,5.08386692 C14.0268525,4.8916949 14.073102,4.65961184 13.9604386,4.38782668 Z" id="ico-filter"></path>
            </g>
        </g>
    </g>
</svg>