<?xml version="1.0" encoding="UTF-8"?>
<svg width="14px" height="20px" viewBox="0 0 14 20" version="1.1" xmlns="http://www.w3.org/2000/svg" xmlns:xlink="http://www.w3.org/1999/xlink">
    <!-- Generator: Sketch 43 (38999) - http://www.bohemiancoding.com/sketch -->
    <title>ico-location</title>
    <desc>Created with Sketch.</desc>
    <defs></defs>
    <g id="Page-1" stroke="none" stroke-width="1" fill="none" fill-rule="evenodd" opacity="0.501019022">
        <g id="Homepage-v2" transform="translate(-1016.000000, -287.000000)" fill-rule="nonzero" fill="#6C7A89">
            <g id="hero">
                <g id="search" transform="translate(465.000000, 262.000000)">
                    <path d="M563.85811,30.7052507 C563.790064,30.4517778 563.651884,30.1816953 563.54966,29.9452295 C562.326441,27.0234438 559.653734,25.9763329 557.495656,25.9763329 C554.606678,25.9763329 551.424807,27.90172 551,31.8703957 L551,32.6812175 C551,32.7150551 551.011734,33.0190194 551.0284,33.1710678 C551.266537,35.0624406 552.768116,37.0725542 553.889556,38.9639269 C555.096063,40.9903409 556.347994,42.9837566 557.588324,44.9763329 C558.353136,43.6760142 559.115192,42.3585999 559.862581,41.0919421 C560.066273,40.7202142 560.302721,40.3487072 560.506636,39.9938981 C560.642549,39.7576532 560.902197,39.5214083 561.020821,39.3015963 C562.227284,37.1061709 564.169225,34.8937825 564.169225,32.7150109 L564.169225,31.8199485 C564.16927,31.5837477 563.874688,30.7561838 563.85811,30.7052507 Z M557.548546,34.7755718 C556.699332,34.7755718 555.769807,34.3535292 555.311,33.1879866 C555.242643,33.002454 555.248154,32.6306377 555.248154,32.5965793 L555.248154,32.0730238 C555.248154,30.5871724 556.517507,29.9114802 557.621791,29.9114802 C558.981279,29.9114802 560.032717,30.9925171 560.032717,32.3437248 C560.032717,33.6948883 558.908033,34.7755718 557.548546,34.7755718 Z" id="ico-location"></path>
                </g>
            </g>
        </g>
    </g>
</svg>