<?xml version="1.0" encoding="UTF-8"?>
<svg width="72px" height="61px" viewBox="0 0 72 61" version="1.1" xmlns="http://www.w3.org/2000/svg" xmlns:xlink="http://www.w3.org/1999/xlink">
    <!-- Generator: Sketch 43 (38999) - http://www.bohemiancoding.com/sketch -->
    <title>ico-quote</title>
    <desc>Created with Sketch.</desc>
    <defs></defs>
    <g id="Page-1" stroke="none" stroke-width="1" fill="none" fill-rule="evenodd">
        <g id="Homepage-v2" transform="translate(-764.000000, -2854.000000)" fill-rule="nonzero" fill="#ECF0F1">
            <g id="testimonials" transform="translate(415.000000, 2854.000000)">
                <g id="ico-quote" transform="translate(349.000000, 0.000000)">
                    <path d="M22.884,27.8182593 C21.123,27.3091728 19.362,27.0508642 17.649,27.0508642 C15.00375,27.0508642 12.7965,27.6578519 11.085,28.4011481 C12.735,22.3357901 16.69875,11.8701481 24.59475,10.6915679 C25.326,10.5823704 25.92525,10.0514444 26.12475,9.33676543 L27.8505,3.1388642 C27.996,2.61471605 27.90975,2.05366667 27.612,1.59880247 C27.31425,1.14393827 26.83575,0.840444444 26.2995,0.766641975 C25.71675,0.686814815 25.12275,0.646148148 24.534,0.646148148 C15.05625,0.646148148 5.67,10.579358 1.70925,24.8021481 C-0.61575,33.1463457 -1.2975,45.6912593 4.4295,53.5873704 C7.63425,58.0057284 12.30975,60.3651481 18.32625,60.6008642 C18.351,60.6016173 18.375,60.6023704 18.39975,60.6023704 C25.82325,60.6023704 32.406,55.5822963 34.4085,48.3955926 C35.60475,44.0992346 35.064,39.5935185 32.8845,35.7053333 C30.72825,31.8608272 27.177,29.0585926 22.884,27.8182593 Z" id="Shape"></path>
                    <path d="M69.35325,35.7060864 C67.197,31.8608272 63.64575,29.0585926 59.35275,27.8182593 C57.59175,27.3091728 55.83075,27.0508642 54.1185,27.0508642 C51.47325,27.0508642 49.26525,27.6578519 47.55375,28.4011481 C49.20375,22.3357901 53.1675,11.8701481 61.06425,10.6915679 C61.7955,10.5823704 62.394,10.0514444 62.59425,9.33676543 L64.32,3.1388642 C64.4655,2.61471605 64.37925,2.05366667 64.0815,1.59880247 C63.7845,1.14393827 63.306,0.840444444 62.769,0.766641975 C62.187,0.686814815 61.593,0.646148148 61.0035,0.646148148 C51.52575,0.646148148 42.1395,10.579358 38.178,24.8021481 C35.85375,33.1463457 35.172,45.6912593 40.89975,53.5888765 C44.10375,58.0064815 48.78,60.3666543 54.79575,60.6016173 C54.8205,60.6023704 54.8445,60.6031235 54.87,60.6031235 C62.29275,60.6031235 68.87625,55.5830494 70.87875,48.3963457 C72.0735,44.0999877 71.532,39.5935185 69.35325,35.7060864 Z" id="Shape"></path>
                </g>
            </g>
        </g>
    </g>
</svg>