<?xml version="1.0" encoding="UTF-8"?>
<svg width="13px" height="12px" viewBox="0 0 13 12" version="1.1" xmlns="http://www.w3.org/2000/svg" xmlns:xlink="http://www.w3.org/1999/xlink">
    <!-- Generator: Sketch 43 (38999) - http://www.bohemiancoding.com/sketch -->
    <title>rating</title>
    <desc>Created with Sketch.</desc>
    <defs></defs>
    <g id="Page-1" stroke="none" stroke-width="1" fill="none" fill-rule="evenodd">
        <g id="Search-results" transform="translate(-605.000000, -437.000000)" fill-rule="nonzero" fill="#FDB22B">
            <g id="results" transform="translate(515.000000, 371.000000)">
                <g id="results-cards">
                    <g id="rating" transform="translate(90.000000, 66.000000)">
                        <path d="M12.9747374,4.65687033 C12.9747374,4.47112088 12.8292248,4.35568352 12.5379811,4.31045275 L8.62386134,3.76087912 L6.8694895,0.334786813 C6.77078782,0.128967033 6.64332773,0.0261098901 6.48740966,0.0261098901 C6.33151891,0.0261098901 6.20414076,0.128967033 6.10535714,0.334786813 L4.35090336,3.76087912 L0.436592437,4.31045275 C0.145567227,4.35568352 0,4.47112088 0,4.65687033 C0,4.76233846 0.065,4.88281319 0.194972689,5.01834725 L3.03323319,7.68387692 L2.36266807,11.4486857 C2.35226261,11.5189978 2.34710084,11.5693451 2.34710084,11.5993319 C2.34710084,11.7047473 2.37435714,11.793811 2.42892437,11.8666549 C2.48346429,11.9396044 2.56528782,11.9758945 2.6745042,11.9758945 C2.76812605,11.9758945 2.87204412,11.9459077 2.98639496,11.8856176 L6.48732773,10.1084044 L9.9885063,11.8856176 C10.0978592,11.9459077 10.2018046,11.9758945 10.3002878,11.9758945 C10.4045882,11.9758945 10.4836807,11.9396044 10.5382479,11.8666549 C10.5926513,11.7939165 10.6199349,11.7047473 10.6199349,11.5993319 C10.6199349,11.5341626 10.617313,11.4839736 10.6120966,11.4486857 L9.94147689,7.68387692 L12.7718992,5.01834725 C12.9072521,4.88782418 12.9747374,4.7672967 12.9747374,4.65687033 Z" id="Shape"></path>
                    </g>
                </g>
            </g>
        </g>
    </g>
</svg>