<?xml version="1.0" encoding="UTF-8"?>
<svg width="26px" height="27px" viewBox="0 0 26 27" version="1.1" xmlns="http://www.w3.org/2000/svg" xmlns:xlink="http://www.w3.org/1999/xlink">
    <!-- Generator: Sketch 43 (38999) - http://www.bohemiancoding.com/sketch -->
    <title>Shape</title>
    <desc>Created with Sketch.</desc>
    <defs></defs>
    <g id="Page-1" stroke="none" stroke-width="1" fill="none" fill-rule="evenodd">
        <g id="Homepage-v2" transform="translate(-1082.000000, -285.000000)" fill-rule="nonzero" fill="#FFFFFF">
            <g id="hero">
                <g id="search" transform="translate(465.000000, 262.000000)">
                    <g transform="translate(617.000000, 23.000000)" id="Shape">
                        <path d="M25.6035,24.5780526 L19.3087143,17.8986316 C20.9272143,15.9356842 21.814,13.4658947 21.814,10.8947368 C21.814,4.88747368 17.0235,0 11.1354286,0 C5.24735714,0 0.456857143,4.88747368 0.456857143,10.8947368 C0.456857143,16.902 5.24735714,21.7894737 11.1354286,21.7894737 C13.3458929,21.7894737 15.4523571,21.1092632 17.2533214,19.818 L23.5959286,26.5481053 C23.8610357,26.829 24.2176071,26.9838947 24.5997143,26.9838947 C24.9613929,26.9838947 25.3045,26.8432105 25.5649643,26.5874211 C26.1183929,26.0441053 26.1360357,25.1431579 25.6035,24.5780526 Z M11.1354286,2.84210526 C15.4876429,2.84210526 19.0282857,6.45442105 19.0282857,10.8947368 C19.0282857,15.3350526 15.4876429,18.9473684 11.1354286,18.9473684 C6.78321429,18.9473684 3.24257143,15.3350526 3.24257143,10.8947368 C3.24257143,6.45442105 6.78321429,2.84210526 11.1354286,2.84210526 Z"></path>
                    </g>
                </g>
            </g>
        </g>
    </g>
</svg>