<?xml version="1.0" encoding="UTF-8"?>
<svg width="19px" height="15px" viewBox="0 0 19 15" version="1.1" xmlns="http://www.w3.org/2000/svg" xmlns:xlink="http://www.w3.org/1999/xlink">
    <!-- Generator: Sketch 43 (38999) - http://www.bohemiancoding.com/sketch -->
    <title>sort-list</title>
    <desc>Created with Sketch.</desc>
    <defs></defs>
    <g id="Page-1" stroke="none" stroke-width="1" fill="none" fill-rule="evenodd">
        <g id="Search-results" transform="translate(-882.000000, -326.000000)" fill-rule="nonzero" fill="#FFFFFF">
            <g id="filter-head" transform="translate(515.000000, 310.000000)">
                <g id="show-toggler" transform="translate(356.000000, 0.000000)">
                    <g id="sort-list" transform="translate(11.000000, 16.000000)">
                        <path d="M4.40751758,5.4714268 L1.01701953,5.4714268 C0.734580078,5.4714268 0.494371094,5.57058313 0.296578125,5.76897022 C0.0988222656,5.96724566 0,6.20810174 0,6.49157568 L0,8.532134 C0,8.81538462 0.0988222656,9.05612903 0.296578125,9.25444169 C0.494371094,9.45279156 0.734580078,9.55198511 1.01701953,9.55198511 L4.40751758,9.55198511 C4.68995703,9.55198511 4.93016602,9.45279156 5.12795898,9.25444169 C5.32575195,9.05612903 5.42453711,8.81538462 5.42453711,8.532134 L5.42453711,6.49157568 C5.42453711,6.20810174 5.32575195,5.96724566 5.12795898,5.76897022 C4.93016602,5.57069479 4.68995703,5.4714268 4.40751758,5.4714268 Z" id="Shape"></path>
                        <path d="M4.40751758,0.0302977667 L1.01701953,0.0302977667 C0.734580078,0.0302977667 0.494371094,0.129416873 0.296578125,0.32780397 C0.0988222656,0.526191067 0,0.767121588 0,1.05040943 L0,3.0908933 C0,3.37436725 0.0988222656,3.61537221 0.296578125,3.81361042 C0.494371094,4.01188586 0.734580078,4.11115385 1.01701953,4.11115385 L4.40751758,4.11115385 C4.68995703,4.11115385 4.93016602,4.01188586 5.12795898,3.81361042 C5.32575195,3.61533499 5.42453711,3.37447891 5.42453711,3.09100496 L5.42453711,1.05055831 C5.42453711,0.767270471 5.32575195,0.52633995 5.12795898,0.327841191 C4.93016602,0.129528536 4.68995703,0.0302977667 4.40751758,0.0302977667 Z" id="Shape"></path>
                        <path d="M4.40751758,10.9122953 L1.01701953,10.9122953 C0.734580078,10.9122953 0.494371094,11.0113772 0.296578125,11.2098387 C0.0988222656,11.408263 0,11.6491563 0,11.9324442 L0,13.9731141 C0,14.2563648 0.0988222656,14.4974069 0.296578125,14.6955707 C0.494371094,14.8940323 0.734580078,14.9930025 1.01701953,14.9930025 L4.40751758,14.9930025 C4.68995703,14.9930025 4.93016602,14.8938834 5.12795898,14.6955707 C5.32575195,14.4974069 5.42453711,14.2563648 5.42453711,13.9731141 L5.42453711,11.9324442 C5.42453711,11.6491563 5.32575195,11.408263 5.12795898,11.2099504 C4.93016602,11.0116377 4.68995703,10.9122953 4.40751758,10.9122953 Z" id="Shape"></path>
                        <path d="M17.968916,5.4714268 L7.79783008,5.4714268 C7.5152793,5.4714268 7.27518164,5.57058313 7.07738867,5.76897022 C6.8795957,5.96735732 6.78081055,6.20810174 6.78081055,6.49157568 L6.78081055,8.532134 C6.78081055,8.81538462 6.8795957,9.05612903 7.07738867,9.25444169 C7.27507031,9.45279156 7.5152793,9.55198511 7.79783008,9.55198511 L17.9691758,9.55198511 C18.2515781,9.55198511 18.4918613,9.45279156 18.6894687,9.25444169 C18.8873359,9.05612903 18.9861211,8.81538462 18.9861211,8.532134 L18.9861211,6.49157568 C18.9861211,6.20810174 18.8873359,5.96724566 18.6893574,5.76897022 C18.4916016,5.57058313 18.2516152,5.4714268 17.968916,5.4714268 Z" id="Shape"></path>
                        <path d="M17.968916,10.9122953 L7.79783008,10.9122953 C7.5152793,10.9122953 7.27518164,11.0113772 7.07738867,11.2098387 C6.8795957,11.408263 6.78081055,11.6490447 6.78081055,11.9322953 L6.78081055,13.9728536 C6.78081055,14.2561414 6.8795957,14.4972581 7.07738867,14.6955707 C7.27507031,14.8938834 7.5152793,14.9928536 7.79783008,14.9928536 L17.9691758,14.9928536 C18.2515781,14.9928536 18.4918613,14.8937717 18.6894687,14.6955707 C18.8873359,14.4971464 18.9861211,14.2561414 18.9861211,13.9728536 L18.9861211,11.9322953 C18.9861211,11.6490447 18.8873359,11.4080397 18.6893574,11.2098387 C18.4916016,11.0116377 18.2516152,10.9122953 17.968916,10.9122953 Z" id="Shape"></path>
                        <path d="M18.6893574,0.327952854 C18.4916016,0.129677419 18.2515781,0.0304466501 17.968916,0.0304466501 L7.79783008,0.0304466501 C7.5152793,0.0304466501 7.27518164,0.129565757 7.07738867,0.327952854 C6.8795957,0.52633995 6.78081055,0.767270471 6.78081055,1.05055831 L6.78081055,3.09104218 C6.78081055,3.37451613 6.8795957,3.61522333 7.07738867,3.81364764 C7.27507031,4.01192308 7.5152793,4.11119107 7.79783008,4.11119107 L17.9691758,4.11119107 C18.2515781,4.11119107 18.4916016,4.01192308 18.6894687,3.81364764 C18.8873359,3.61537221 18.9861211,3.37451613 18.9861211,3.09104218 L18.9861211,1.05055831 C18.9861211,0.767233251 18.8873359,0.52633995 18.6893574,0.327952854 Z" id="Shape"></path>
                    </g>
                </g>
            </g>
        </g>
    </g>
</svg>