<?xml version="1.0" encoding="UTF-8"?>
<svg width="10px" height="10px" viewBox="0 0 10 10" version="1.1" xmlns="http://www.w3.org/2000/svg" xmlns:xlink="http://www.w3.org/1999/xlink">
    <!-- Generator: Sketch 43 (38999) - http://www.bohemiancoding.com/sketch -->
    <title>time</title>
    <desc>Created with Sketch.</desc>
    <defs></defs>
    <g id="Page-1" stroke="none" stroke-width="1" fill="none" fill-rule="evenodd" opacity="0.50537817">
        <g id="Search-results" transform="translate(-1026.000000, -418.000000)" fill-rule="nonzero" fill="#6C7A89">
            <g id="results" transform="translate(515.000000, 371.000000)">
                <g id="results-cards">
                    <g id="time" transform="translate(511.000000, 42.000000)">
                        <g transform="translate(0.000000, 5.000000)" id="Shape">
                            <path d="M5,0 C2.25,0 0,2.25 0,5 C0,7.75 2.25,10 5,10 C7.75,10 10,7.75 10,5 C10,2.25 7.75,0 5,0 Z M5,9 C2.8,9 1,7.2 1,5 C1,2.8 2.8,1 5,1 C7.2,1 9,2.8 9,5 C9,7.2 7.2,9 5,9 Z"></path>
                            <polygon points="5.25 2.5 4.5 2.5 4.5 5.5 7.1 7.1 7.5 6.45 5.25 5.1"></polygon>
                        </g>
                    </g>
                </g>
            </g>
        </g>
    </g>
</svg>