<?xml version="1.0" encoding="UTF-8"?>
<svg width="20px" height="19px" viewBox="0 0 20 19" version="1.1" xmlns="http://www.w3.org/2000/svg" xmlns:xlink="http://www.w3.org/1999/xlink">
    <!-- Generator: Sketch 43 (38999) - http://www.bohemiancoding.com/sketch -->
    <title>ico-tool</title>
    <desc>Created with Sketch.</desc>
    <defs></defs>
    <g id="Page-1" stroke="none" stroke-width="1" fill="none" fill-rule="evenodd" opacity="0.514266304">
        <g id="Homepage-v2" transform="translate(-762.000000, -288.000000)" fill-rule="nonzero" fill="#6C7A89">
            <g id="hero">
                <g id="search" transform="translate(465.000000, 262.000000)">
                    <g id="ico-tool" transform="translate(297.169225, 26.000000)">
                        <path d="M14.2268951,7.11346708 C14.2268951,3.18515844 11.041893,0 7.11350617,0 C3.18519753,0 3.90946502e-05,3.18515844 3.90946502e-05,7.11346708 C3.90946502e-05,11.0417757 3.18519753,14.2267778 7.11350617,14.2267778 C11.041893,14.2267778 14.2268951,11.0417757 14.2268951,7.11346708 Z M7.11350617,12.4483621 C4.17155556,12.4483621 1.77845473,10.0554568 1.77845473,7.11350617 C1.77845473,4.17155556 4.17155556,1.77845473 7.11350617,1.77845473 C10.0553786,1.77845473 12.4486749,4.17155556 12.4486749,7.11350617 C12.4486749,10.0554568 10.0553786,12.4483621 7.11350617,12.4483621 Z" id="Shape"></path>
                        <path d="M18.4480617,15.9336893 L14.0962407,11.5815165 C13.4478169,12.589963 12.5896893,13.4476605 11.5812428,14.0961235 L15.9334156,18.4482963 C16.6282058,19.14293 17.7547181,19.14293 18.4480226,18.4482963 C19.1428519,17.7547963 19.1428519,16.628284 18.4480617,15.9336893 Z" id="Shape"></path>
                    </g>
                </g>
            </g>
        </g>
    </g>
</svg>