<?xml version="1.0" encoding="UTF-8"?>
<svg width="80px" height="80px" viewBox="0 0 80 80" version="1.1" xmlns="http://www.w3.org/2000/svg" xmlns:xlink="http://www.w3.org/1999/xlink">
    <!-- Generator: Sketch 43 (38999) - http://www.bohemiancoding.com/sketch -->
    <title>ico-video-play</title>
    <desc>Created with Sketch.</desc>
    <defs></defs>
    <g id="Page-1" stroke="none" stroke-width="1" fill="none" fill-rule="evenodd">
        <g id="Homepage-v2" transform="translate(-760.000000, -2514.000000)" fill-rule="nonzero" fill="#FFFFFF">
            <g id="video" transform="translate(0.000000, 2264.000000)">
                <g id="ico-video-play" transform="translate(760.000000, 250.000000)">
                    <path d="M53.095965,38.3645052 L36.5151011,26.3114926 C35.9066047,25.8703991 35.098819,25.8039694 34.4318644,26.1467469 C33.7595954,26.4868671 33.3397594,27.1777365 33.3397594,27.9244068 L33.3397594,52.0224604 C33.3397594,52.7771022 33.7595954,53.4653144 34.4318644,53.8054347 C34.7161837,53.9489229 35.0270749,54.020667 35.3406233,54.020667 C35.7498305,54.020667 36.1643521,53.8904647 36.5151011,53.6327173 L53.095965,41.5903335 C53.6194314,41.205041 53.9250082,40.6098305 53.9250082,39.9774194 C53.9276654,39.3343794 53.614117,38.7418261 53.095965,38.3645052 Z" id="Shape"></path>
                    <path d="M39.9269328,0.00531437944 C17.8722581,0.00531437944 0,17.8775724 0,39.9322471 C0,61.9789502 17.8722581,79.8458939 39.9269328,79.8458939 C61.9762931,79.8458939 79.8512083,61.9762931 79.8512083,39.9322471 C79.8538655,17.8775724 61.9762931,0.00531437944 39.9269328,0.00531437944 Z M39.9269328,73.1843193 C21.5604374,73.1843193 6.6695462,58.3013997 6.6695462,39.9322471 C6.6695462,21.5710662 21.5604374,6.6695462 39.9269328,6.6695462 C58.2907709,6.6695462 73.1790049,21.568409 73.1790049,39.9322471 C73.1816621,58.3013997 58.2907709,73.1843193 39.9269328,73.1843193 Z" id="Shape"></path>
                </g>
            </g>
        </g>
    </g>
</svg>